# xmcd
#
# Track frame offsets:
#	150
#	20248
#	37458
#	54290
#	72011
#	90058
#	108671
#	121075
#	137016
#	153550
#	168950
#	189561
#	207365
#	232486
#
# Disc length: 3342 seconds
#
# Revision: 2
# Processed by: cddbd v1.5.1PL2 Copyright (c) Steve Scherf et al.
# Submitted via: EasyCDDAExtractor 8.1.2.3
#
DISCID=c50d0c0e
DTITLE=Killah Priest - Black August
DYEAR=2003
DGENRE=Rap
TTITLE0=Black August (Daylight)
TTITLE1=Excalibur
TTITLE2=When I'm Writing
TTITLE3=Do The Damn Thing
TTITLE4=Time
TTITLE5=Robbery (featuring Savoy)
TTITLE6=Come With Me
TTITLE7=Breathe
TTITLE8=Musifixtion
TTITLE9=Déjà vu
TTITLE10=Goodbye (Featuring Solstice)
TTITLE11=Black August (Dark)
TTITLE12=Robbery remix (featuring Elephant Man)
TTITLE13=Do You Want It
EXTD=
EXTT0=
EXTT1=
EXTT2=
EXTT3=
EXTT4=
EXTT5=
EXTT6=
EXTT7=
EXTT8=
EXTT9=
EXTT10=
EXTT11=
EXTT12=
EXTT13=
PLAYORDER=
